<svg xmlns="http://www.w3.org/2000/svg"><style>:root svg:not(:target){display:none}</style><svg fill="none" id="Academy" viewBox="0 0 12 16"><path fill="#BDBDBD" d="M11.2 5.8 6 2.5.8 5.8V1.4L6 .8l5.2.6v4.4Zm0 .5-2 1.3-3.2-2v.6L8.7 8l-.5.3L6 6.8v.6l1.7 1-.4.4L6 8v.5l.8.6-.8.5L.8 6.4 6 3l5.2 3.2Zm0 5.5L6 15 .8 11.8V7L6 10.3v.6L2.4 8.6v.6L6 11.5v.6L2.4 9.8v.6L6 12.7l3.6-2.3V8l1.6-1v4.8ZM6 0 0 .7v11.5L6 16l6-3.8V.7L6 0Z"></path></svg><svg fill="none" id="Address" viewBox="0 0 13 16"><path fill="#7859CF" fill-rule="evenodd" d="M11.8 6.5c0 2.3-1.4 4.4-3 6a17.5 17.5 0 0 1-2.3 2 17 17 0 0 1-2.4-2c-1.5-1.6-2.9-3.7-2.9-6a5.3 5.3 0 1 1 10.6 0Zm1.2 0c0 5.6-6.5 9.5-6.5 9.5S0 12 0 6.5a6.5 6.5 0 0 1 13 0Zm-4.2 0a2.3 2.3 0 1 1-4.6 0 2.3 2.3 0 0 1 4.6 0Zm1.2 0a3.5 3.5 0 1 1-7 0 3.5 3.5 0 0 1 7 0Z" clip-rule="evenodd"></path></svg><svg fill="none" id="Phone" viewBox="0 0 13 16"><path fill="#7859CF" fill-rule="evenodd" d="M1.5 1.5C.5 2-.2 3.2 0 4.3l.4 1.8c1 3.1 2.5 5.8 4.8 8.1l1.4 1.2c.9.7 2.2.8 3.3.2l2.2-1.2c.9-.5 1.2-1.6.6-2.3l-1.9-2.6c-.5-.7-1.6-.8-2.4-.3l-1.3 1C5.8 9.3 5 8 4.9 6.6l1.5-.7c1-.4 1.4-1.3 1-2.1L6 .8C5.7 0 4.6-.2 3.7.2L1.5 1.5ZM1.3 4c-.1-.6.2-1.2.8-1.5l2.2-1.3c.2-.1.5 0 .6.2l1.3 3c.1.1 0 .3-.2.4l-2.4 1v.5c0 2.1 1.2 4 3 5.1l.4.3L9.1 10h.6l2 2.7c.1.2 0 .4-.2.6l-2.2 1.2c-.6.3-1.3.3-1.8-.1l-1.4-1.2a21 21 0 0 1-4.5-7.5L1.3 4Z" clip-rule="evenodd"></path></svg><svg fill="none" id="Union" viewBox="0 0 20 16"><path fill="#fff" fill-rule="evenodd" d="M13.7 13.5H15v.2a2.7 2.7 0 0 1-2.6 2.3H3.6c-1.3 0-2.4-1-2.6-2.3L.2 8 0 6.7h4.6L4.3 4a3.7 3.7 0 0 1 7.3-1h-1.4a2.3 2.3 0 0 0-4.5.9l.2 2.8h3.6V8H6.1l.2 2.7h3.4v-.2h1.4v.2h1.4V12h-1.6l-.2 2.7h1.7c.6 0 1.2-.5 1.3-1.2ZM4.7 8H1.5l.4 2.7h3L4.7 8Zm2 6.7L6.3 12h3.2l-.2 2.7H6.6ZM5 12l.2 2.7H3.6c-.6 0-1.2-.5-1.3-1.2L2.1 12h3Zm10.7-2V7.2H13V5.8h2.8V3h1.4v2.8H20v1.4h-2.8V10h-1.4Z" clip-rule="evenodd"></path></svg><svg fill="none" id="basket" viewBox="0 0 16 16"><path fill="#333" fill-rule="evenodd" d="m5.7 3.9.2 2.8H10l.2-2.8a2.3 2.3 0 1 0-4.6 0Zm5.7 2.8.3-2.7a3.7 3.7 0 1 0-7.4 0l.3 2.7H0L.2 8l.8 5.7A2.7 2.7 0 0 0 3.6 16h8.8c1.3 0 2.4-1 2.6-2.3l.8-5.7.2-1.3h-4.6Zm0 1.3h-.1l-.2 2.7h3l.4-2.7h-3.2ZM9.8 8H6.1l.2 2.7h3.4L10 8ZM4.7 8H1.5l.4 2.7h3L4.7 8Zm2 6.7L6.3 12h3.2l-.2 2.7H6.6Zm4.2-2.7-.2 2.7h1.7c.6 0 1.2-.5 1.3-1.2l.2-1.5h-3Zm-5.8 0 .2 2.7H3.6c-.6 0-1.2-.5-1.3-1.2L2.1 12h3Z" clip-rule="evenodd"></path></svg><svg fill="none" id="burger" viewBox="0 0 16 12"><path fill="#333" fill-rule="evenodd" d="M0 0h16v1.5H0V0Zm0 5.3h16v1.5H0V5.3Zm16 5.2H0V12h16v-1.5Z" clip-rule="evenodd"></path></svg><svg fill="none" id="feature_clock" viewBox="0 0 52 56"><path fill="#F0EBFF" fill-rule="evenodd" d="M24 4h8v3h-3v3c3.8.2 7.4 1.3 10.5 3 1.9-1.9 6.3.2 4.8 3.7h-.1A23 23 0 0 1 28 56a23 23 0 0 1-16.3-39.3c-2-3 2.6-6.1 4.8-3.6 3.1-1.8 6.7-3 10.5-3V7h-3V4Z" clip-rule="evenodd"></path><path fill="#7859CF" fill-rule="evenodd" d="M27 1h-6v1h6V1Zm-2 2h3V0h-8v3h3v3c-3.5.2-6.7 1-9.6 2.6l-.1-.2C11.7 6.7 9.4 7 8 8c-.8.6-1.4 1.3-1.6 2.3-.3 1-.2 2 .5 3l.1.2a23 23 0 1 0 34 0l.2-.4c.4-1 .5-2.1.2-3a4 4 0 0 0-1.7-2c-1.4-1-3.6-1.1-5 .3l-.1.2A22.9 22.9 0 0 0 25 6V3Zm-1 4c-3.9 0-7.5 1-10.6 2.7l-.4.2a22 22 0 1 0 22 0l-.4-.2A21.9 21.9 0 0 0 24 7ZM12.5 9a23 23 0 0 0-4.8 3.7 3 3 0 0 1-.4-1c-.5-2.3 2.3-4.3 4.3-3.3l.9.7Zm23 0a23 23 0 0 1 4.8 3.7l.3-1c.2-2.4-2.4-3.8-4.1-3.2-.4.1-.7.3-1 .6ZM24 31a2 2 0 0 0 .9-3.8l-1-.2a2 2 0 0 0 .1 4Zm-.6-5L22 21.2v-.4l1.5-4.5.5-1.4.5 1.4 1.5 4.5v.3l-1.4 5h.4l7.6-13.3.8.4L26 26.7a3 3 0 1 1-2.5-.6Zm-.4-5 1 3.6 1-3.6-1-3-1 3Z" clip-rule="evenodd"></path></svg><svg fill="none" id="feature_leaf" viewBox="0 0 46 56"><path fill="#F0EBFF" fill-rule="evenodd" d="M38.7 22.1C39.5 15.6 40.2 9.3 46 4 19.5 4 11.8 12.1 8 18c-8.5 13-1 25.7.7 28A808.2 808.2 0 0 0 4 55.7l.9.4 2-4 2.6-5.3c2.6.8 14.5 4.2 22-4.7 5.7-6.7 6.5-13.4 7.2-19.9Z" clip-rule="evenodd"></path><path fill="#7859CF" fill-rule="evenodd" d="M5.2 41c4-7.7 8.5-16 13-21l.8.7c-4.6 5-9 13.3-13 21a23.7 23.7 0 0 0 7 1.3c4.5.1 9.8-1 13.7-5.6 5.5-6.5 6.3-13 7-19.5.7-5.9 1.4-11.7 6-16.9a59.2 59.2 0 0 0-24.8 4.7c-5.5 2.7-8.2 6-10 8.8-4.6 7-4.4 13.8-3 19A29 29 0 0 0 5.2 41Zm-.5 1C3.1 39.8-4.5 27 4 14 7.8 8.2 15.2.3 40.6 0H42l-1 1c-4.9 5.1-5.6 11-6.3 17.1A33.6 33.6 0 0 1 27.5 38c-7.5 8.9-19.4 5.5-22 4.7L3 48l-2 4-.9-.4A848.2 848.2 0 0 0 4.7 42Z" clip-rule="evenodd"></path></svg><svg fill="none" id="feature_lightning" viewBox="0 0 42 56"><path fill="#F0EBFF" fill-rule="evenodd" d="M20 35.2 38 4 4 30.7l16 4.5Zm6-10.4L8 56l34-26.7-16-4.5Z" clip-rule="evenodd"></path><path fill="#7859CF" fill-rule="evenodd" d="M34.1 0 0 26.7l16 4.5L3.9 52 38 25.3l-16-4.5L34.1 0Zm1.7 25.8-15.3-4.4L30.7 4 2.2 26.3l15.3 4.3L7.3 48l28.5-22.3Z" clip-rule="evenodd"></path></svg><svg fill="none" id="feature_pocket" viewBox="0 0 52 56"><path fill="#F0EBFF" d="M4 4h48l-4 44-20 8-20-8L4 4Z"></path><path fill="#7859CF" fill-rule="evenodd" d="M1 0H0v1l4 43 20 8 20-8 4-43V0H1Zm.1 1 .4 4h45l.4-4H1.1Zm40.8 5H6.1v1.1h-.4l-.5.1L5.1 6H1.5L5 43.3l19 7.6 19-7.6L46.6 6H43l-.1 1.2h-1L42 6ZM6.1 11.6h-.5l.4 4.5h1l-.4-4.5H6Zm.8 8.9h-.5l.4 4.5h.5l.5-.1-.4-4.4h-.5Zm.8 8.9h-.5l.4 4.5H8l.5-.1-.4-4.5h-.5Zm.8 8.9H8l.2 2.2 2 .8.1-.4.2-.5-1.4-.6-.1-1.6h-.5Zm5.8 4.2-.2.5 4 1.6.2-.5.1-.4-4-1.7-.1.5Zm8 3.2-.3.5 2 .8 2-.8-.2-.5-.2-.4-1.6.6-1.6-.6-.2.4Zm7.4-1.6.2.5 4-1.6-.2-.5-.2-.5-4 1.7.2.4Zm8-3.2.2.4 2-.8.1-2.2h-1l-.1 1.5-1.4.6.2.5Zm2.2-7h.5l.4-4.5h-1l-.4 4.4h.5Zm.8-9h.5l.4-4.4h-1l-.4 4.4h.5Zm.8-8.8h.5l.4-4.4H42l-.5-.1L41 16h.5Z" clip-rule="evenodd"></path></svg><svg fill="none" id="user" viewBox="0 0 16 16"><path fill-rule="evenodd" clip-rule="evenodd" d="M10.667 4a2.667 2.667 0 1 1-5.334 0 2.667 2.667 0 0 1 5.334 0ZM12 4a4 4 0 1 1-8 0 4 4 0 0 1 8 0Zm-8.803 8.31C4.437 11.277 6.16 10.667 8 10.667s3.564.61 4.803 1.643c1.232 1.027 1.864 2.362 1.864 3.69H16c0-1.768-.843-3.464-2.343-4.714-1.5-1.25-3.535-1.953-5.657-1.953s-4.157.703-5.657 1.953S0 14.232 0 16h1.333c0-1.328.632-2.663 1.864-3.69Z" fill="#333"></path></svg></svg>