<svg xmlns="http://www.w3.org/2000/svg" width="16" height="16" fill="none"><path fill="#7859CF" fill-rule="evenodd" d="m5.7 3.9.2 2.8H10l.2-2.8a2.3 2.3 0 1 0-4.6 0Zm5.7 2.8.3-2.7a3.7 3.7 0 1 0-7.4 0l.3 2.7H0L.2 8l.8 5.7A2.7 2.7 0 0 0 3.6 16h8.8c1.3 0 2.4-1 2.6-2.3l.8-5.7.2-1.3h-4.6Zm0 1.3h-.1l-.2 2.7h3l.4-2.7h-3.2ZM9.8 8H6.1l.2 2.7h3.4L10 8ZM4.7 8H1.5l.4 2.7h3L4.7 8Zm2 6.7L6.3 12h3.2l-.2 2.7H6.6Zm4.2-2.7-.2 2.7h1.7c.6 0 1.2-.5 1.3-1.2l.2-1.5h-3Zm-5.8 0 .2 2.7H3.6c-.6 0-1.2-.5-1.3-1.2L2.1 12h3Z" clip-rule="evenodd"/></svg>