<svg xmlns="http://www.w3.org/2000/svg" width="46" height="56" fill="none"><path fill="#F0EBFF" fill-rule="evenodd" d="M38.7 22.1C39.5 15.6 40.2 9.3 46 4 19.5 4 11.8 12.1 8 18c-8.5 13-1 25.7.7 28A808.2 808.2 0 0 0 4 55.7l.9.4 2-4 2.6-5.3c2.6.8 14.5 4.2 22-4.7 5.7-6.7 6.5-13.4 7.2-19.9Z" clip-rule="evenodd"/><path fill="#7859CF" fill-rule="evenodd" d="M5.2 41c4-7.7 8.5-16 13-21l.8.7c-4.6 5-9 13.3-13 21a23.7 23.7 0 0 0 7 1.3c4.5.1 9.8-1 13.7-5.6 5.5-6.5 6.3-13 7-19.5.7-5.9 1.4-11.7 6-16.9a59.2 59.2 0 0 0-24.8 4.7c-5.5 2.7-8.2 6-10 8.8-4.6 7-4.4 13.8-3 19A29 29 0 0 0 5.2 41Zm-.5 1C3.1 39.8-4.5 27 4 14 7.8 8.2 15.2.3 40.6 0H42l-1 1c-4.9 5.1-5.6 11-6.3 17.1A33.6 33.6 0 0 1 27.5 38c-7.5 8.9-19.4 5.5-22 4.7L3 48l-2 4-.9-.4A848.2 848.2 0 0 0 4.7 42Z" clip-rule="evenodd"/></svg>