<svg xmlns="http://www.w3.org/2000/svg" width="52" height="56" fill="none"><path fill="#F0EBFF" d="M4 4h48l-4 44-20 8-20-8L4 4Z"/><path fill="#7859CF" fill-rule="evenodd" d="M1 0H0v1l4 43 20 8 20-8 4-43V0H1Zm.1 1 .4 4h45l.4-4H1.1Zm40.8 5H6.1v1.1h-.4l-.5.1L5.1 6H1.5L5 43.3l19 7.6 19-7.6L46.6 6H43l-.1 1.2h-1L42 6ZM6.1 11.6h-.5l.4 4.5h1l-.4-4.5H6Zm.8 8.9h-.5l.4 4.5h.5l.5-.1-.4-4.4h-.5Zm.8 8.9h-.5l.4 4.5H8l.5-.1-.4-4.5h-.5Zm.8 8.9H8l.2 2.2 2 .8.1-.4.2-.5-1.4-.6-.1-1.6h-.5Zm5.8 4.2-.2.5 4 1.6.2-.5.1-.4-4-1.7-.1.5Zm8 3.2-.3.5 2 .8 2-.8-.2-.5-.2-.4-1.6.6-1.6-.6-.2.4Zm7.4-1.6.2.5 4-1.6-.2-.5-.2-.5-4 1.7.2.4Zm8-3.2.2.4 2-.8.1-2.2h-1l-.1 1.5-1.4.6.2.5Zm2.2-7h.5l.4-4.5h-1l-.4 4.4h.5Zm.8-9h.5l.4-4.4h-1l-.4 4.4h.5Zm.8-8.8h.5l.4-4.4H42l-.5-.1L41 16h.5Z" clip-rule="evenodd"/></svg>