<svg xmlns="http://www.w3.org/2000/svg" width="20" height="20" fill="none"><path fill="##7859CF" fill-rule="evenodd" d="M1.4 1.4C0 2.8 0 5.1 0 9.6v.9c0 4.5 0 6.7 1.4 8.1C2.8 20 5.1 20 9.6 20h.9c4.5 0 6.7 0 8.1-1.4 1.4-1.4 1.4-3.7 1.4-8.2v-.9c0-4.5 0-6.7-1.4-8.1C17.2 0 14.9 0 10.4 0h-.9C5 0 2.8 0 1.4 1.4Zm8.6 8.8a3 3 0 1 0 0-6 3 3 0 0 0 0 6Zm0-4.3a1.3 1.3 0 0 1 0 2.5c-.7 0-1.2-.5-1.2-1.2s.5-1.3 1.2-1.3Zm1.2 6.8L13 12c.4-.3.5-.9.3-1.3a.9.9 0 0 0-1.3-.2c-1.2.7-2.8.7-4 0a.9.9 0 0 0-1.3.2c-.2.4 0 1 .3 1.2.6.4 1.2.6 1.8.8L7 14.3c-.3.4-.3 1 0 1.3l.6.3c.3 0 .5-.1.7-.3l1.6-1.7 1.7 1.7a.9.9 0 0 0 1.3-1.3l-1.8-1.6Z" clip-rule="evenodd"/></svg>