<svg xmlns="http://www.w3.org/2000/svg" width="13" height="16" fill="none"><path fill="#7859CF" fill-rule="evenodd" d="M1.5 1.5C.5 2-.2 3.2 0 4.3l.4 1.8c1 3.1 2.5 5.8 4.8 8.1l1.4 1.2c.9.7 2.2.8 3.3.2l2.2-1.2c.9-.5 1.2-1.6.6-2.3l-1.9-2.6c-.5-.7-1.6-.8-2.4-.3l-1.3 1C5.8 9.3 5 8 4.9 6.6l1.5-.7c1-.4 1.4-1.3 1-2.1L6 .8C5.7 0 4.6-.2 3.7.2L1.5 1.5ZM1.3 4c-.1-.6.2-1.2.8-1.5l2.2-1.3c.2-.1.5 0 .6.2l1.3 3c.1.1 0 .3-.2.4l-2.4 1v.5c0 2.1 1.2 4 3 5.1l.4.3L9.1 10h.6l2 2.7c.1.2 0 .4-.2.6l-2.2 1.2c-.6.3-1.3.3-1.8-.1l-1.4-1.2a21 21 0 0 1-4.5-7.5L1.3 4Z" clip-rule="evenodd"/></svg>